<?xml version="1.0" encoding="utf-8"?>
<!-- Generator: Adobe Illustrator 27.5.0, SVG Export Plug-In . SVG Version: 6.00 Build 0)  -->
<svg version="1.1" xmlns="http://www.w3.org/2000/svg" xmlns:xlink="http://www.w3.org/1999/xlink" x="0px" y="0px"
	 viewBox="0 0 3710 3710"  xml:space="preserve">

<g id="Illustration">
	<g>
		
			<linearGradient id="SVGID_1_" gradientUnits="userSpaceOnUse" x1="1473.814" y1="3986.509" x2="-968.5954" y2="953.1899" gradientTransform="matrix(-1 0 0 1 1600.2349 0)">
			<stop  offset="0" style="stop-color:#DAE3FE"/>
			<stop  offset="1" style="stop-color:#E9EFFD"/>
		</linearGradient>
		<path style="fill:url(#SVGID_1_);" d="M791.375,2785.443c56.483,58.797,109.927,96.715,152.152,126.672
			c496.346,352.146,1083.654,249.497,1208.474,224.429c184.32-37.017,540.605-108.57,798.193-408.097
			c389.709-453.159,329.025-1167.098,26.741-1638.379c-55.292-86.205-347.364-564.665-940.998-641.395
			c-359.261-46.436-778.044,47.22-1081.315,298.456C318.028,1274.498,363.347,2339.873,791.375,2785.443z"/>
		
			<linearGradient id="SVGID_00000092447374384865457360000013500792576012864648_" gradientUnits="userSpaceOnUse" x1="476.8644" y1="2439.562" x2="3227.5693" y2="2439.562">
			<stop  offset="0" style="stop-color:#4F52FF"/>
			<stop  offset="1" style="stop-color:#4042E2"/>
		</linearGradient>
		<path style="fill:url(#SVGID_00000092447374384865457360000013500792576012864648_);" d="M483.205,1826.089
			c-2.406,23.115-4.161,46.023-5.198,69.366c-30.493,687.156,552.586,1270.554,1302.344,1303.114
			c749.756,32.562,1413.383-485.629,1443.876-1172.785c2.816-63.463,6.289-133.616-1.01-196.357
			C2374.033,1681.017,1370.553,1584.305,483.205,1826.089z"/>
		<path style="fill:#91B3FA;" d="M987.325,2744.069c25.05-9.93,49.875-17.625,67.791-22.855
			c224.591-65.559,489.869-168.981,722.493-193.954c166.37-17.86,323.953-27.262,489.096,16.335
			c139.638,36.863,269.409,74.323,389.144,136.325c95.038,49.213,243.511,40.063,250.79,175.82
			c8.589,160.216-229.796,278.83-353.621,317.991c-166.732,52.729-345.869,58.112-519.309,53.605
			c-121.476-3.157-242.275-18.625-362.611-35.527c-126.944-17.829-267.127-50.972-388.427-93.935
			c-133.813-47.395-249.063-134.856-361.905-220.99c-0.043-0.033-0.087-0.066-0.14-0.107
			C843.811,2818.13,916.467,2772.158,987.325,2744.069z"/>
		<g>
			<path style="fill:#BDD0FB;" d="M3156.642,1320.474c1.734-11.098-14.155-17.181-22.968-8.852
				c-89.503,84.578-301.077,333.567-213.244,733.958c110.199,502.35,1.766,696.938-142.135,821.534
				c0,0,205.372-69.046,322.849-267.062C3389.575,2113.878,3125.816,1517.799,3156.642,1320.474z"/>
			<path style="fill:#FFFFFF;" d="M3096.102,1484.586c-7.64,57.435-13.97,114.945-17.864,172.526
				c-4.242,57.56-6.469,115.167-6.616,172.71c0.107,57.534,1.463,115.034,5.643,172.344c3.881,57.329,10.609,114.395,17.595,171.666
				c6.612,57.278,13.651,114.941,13.868,173.533c0.279,58.468-7.509,118.06-27.626,174.896
				c-5.032,14.167-10.38,28.314-16.632,42.067c-5.962,13.853-12.629,27.496-19.574,41.034
				c-14.046,27.027-30.17,53.333-48.451,78.528c-36.714,50.32-82.136,95.933-132.988,135.479
				c-5.352,4.162-13.496,3.857-18.191-0.681c-4.609-4.456-4.178-11.337,0.907-15.526l0.036-0.03
				c12.061-9.915,23.979-19.935,35.352-30.371c5.782-5.142,11.294-10.49,16.917-15.748c5.391-5.431,11.023-10.688,16.218-16.255
				c21.2-21.962,40.625-45.152,58.002-69.432c34.989-48.364,61.916-101.34,81.244-155.609c9.315-27.23,16.309-54.963,20.822-83.017
				c4.489-28.06,6.5-56.413,6.644-84.852c0.292-56.909-6.129-114.042-12.263-171.367c-6.05-57.346-11.673-115.018-14.538-172.853
				c-1.522-28.909-2.444-57.849-2.764-86.801c-0.257-14.472-0.189-28.953-0.152-43.431c0.198-14.481,0.488-28.96,0.915-43.437
				c1.831-57.911,5.703-115.784,11.681-173.511c6.297-57.708,14.36-115.287,24.967-172.549c0.304-1.637,2.077-2.78,3.963-2.554
				C3095.047,1481.567,3096.309,1483.005,3096.102,1484.586z"/>
		</g>
		<g>
			<g>
				<path style="fill:#91B3FA;" d="M3043.803,2566.214c10.997,10.026,28.659,5.562,33.755-8.419
					c28.121-77.145,87.904-302.451-57.545-545.746c-122.825-205.452-169.902-328.528-187.402-385.881
					c-3.701-12.128-20.733-12.482-24.958-0.528C2761.036,1757.538,2645.317,2202.931,3043.803,2566.214z"/>
				<path style="fill:#FFFFFF;" d="M3061.692,2556.941c0.367,0.038,0.742,0.04,1.123,0.005c3.195-0.292,5.549-3.119,5.257-6.314
					c-0.331-3.622-34.907-365.596-192.783-658.978c-1.52-2.823-5.043-3.881-7.871-2.363c-2.826,1.522-3.883,5.044-2.364,7.871
					c156.728,291.246,191.116,650.929,191.446,654.527C3056.758,2554.503,3058.981,2556.665,3061.692,2556.941z"/>
			</g>
		</g>
		<g>
			<path style="fill:#7D97F4;" d="M969.514,581.2c-0.154-8.669,2.132-16.988,6.346-23.095c4.214-6.107,10.003-9.491,16.072-9.396
				l491.115,7.723c12.501,0.197,22.751,14.809,22.913,32.664l10.541,1161.68c0.16,17.629-9.583,31.893-21.919,32.091
				l-483.903,12.331c-6.039,0.096-8.791-7.886-13.187-13.943c-4.395-6.058-6.954-14.319-7.107-22.95L969.514,581.2z"/>
			<g style="opacity:0.45;">
				<polygon style="fill:#FFFFFF;" points="1424.324,669.954 1424.221,640.887 1264.385,635.46 1264.543,664.593 				"/>
				<polygon style="fill:#FFFFFF;" points="1424.613,751.386 1424.509,722.375 1264.825,717.131 1264.982,746.208 				"/>
				<polygon style="fill:#FFFFFF;" points="1424.902,832.669 1424.798,803.711 1265.263,798.65 1265.42,827.673 				"/>
				<polygon style="fill:#FFFFFF;" points="1425.189,913.798 1425.086,884.894 1265.701,880.015 1265.857,908.984 				"/>
				<polygon style="fill:#FFFFFF;" points="1425.476,994.778 1425.373,965.927 1266.137,961.228 1266.294,990.143 				"/>
				<polygon style="fill:#FFFFFF;" points="1426.05,1156.284 1425.947,1127.541 1267.009,1123.203 1267.165,1152.01 				"/>
				<polygon style="fill:#FFFFFF;" points="1426.905,1397.42 1426.802,1368.836 1268.309,1365.035 1268.464,1393.681 				"/>
				<polygon style="fill:#FFFFFF;" points="1425.763,1075.605 1425.66,1046.808 1266.574,1042.292 1266.73,1071.153 				"/>
				<polygon style="fill:#FFFFFF;" points="1426.335,1236.812 1426.232,1208.121 1267.443,1203.965 1267.599,1232.718 				"/>
				<polygon style="fill:#FFFFFF;" points="1426.62,1317.189 1426.518,1288.553 1267.877,1284.574 1268.032,1313.275 				"/>
				<polygon style="fill:#FFFFFF;" points="1427.189,1477.5 1427.087,1448.97 1268.741,1445.347 1268.896,1473.941 				"/>
				<polygon style="fill:#FFFFFF;" points="1427.472,1557.434 1427.37,1528.957 1269.173,1525.509 1269.327,1554.049 				"/>
				<polygon style="fill:#FFFFFF;" points="1427.755,1637.219 1427.654,1608.793 1269.603,1605.524 1269.757,1634.012 				"/>
				<polygon style="fill:#FFFFFF;" points="1428.037,1716.855 1427.936,1688.483 1270.033,1685.389 1270.187,1713.824 				"/>
				<polygon style="fill:#FFFFFF;" points="1215.855,662.957 1215.681,633.805 1054.929,628.347 1055.158,657.565 				"/>
				<polygon style="fill:#FFFFFF;" points="1216.34,744.631 1216.166,715.533 1055.567,710.258 1055.795,739.42 				"/>
				<polygon style="fill:#FFFFFF;" points="1216.824,826.149 1216.65,797.106 1056.203,792.016 1056.43,821.125 				"/>
				<polygon style="fill:#FFFFFF;" points="1217.307,907.518 1217.134,878.529 1056.838,873.62 1057.064,902.674 				"/>
				<polygon style="fill:#FFFFFF;" points="1217.789,988.732 1217.616,959.797 1057.472,955.073 1057.697,984.072 				"/>
				<polygon style="fill:#FFFFFF;" points="1218.75,1150.708 1218.578,1121.882 1058.735,1117.521 1058.96,1146.412 				"/>
				<polygon style="fill:#FFFFFF;" points="1220.186,1392.543 1220.015,1363.877 1060.621,1360.055 1060.846,1388.785 				"/>
				<polygon style="fill:#FFFFFF;" points="1218.27,1069.795 1218.098,1040.914 1058.103,1036.372 1058.329,1065.317 				"/>
				<polygon style="fill:#FFFFFF;" points="1219.23,1231.469 1219.058,1202.696 1059.365,1198.516 1059.59,1227.353 				"/>
				<polygon style="fill:#FFFFFF;" points="1219.708,1312.082 1219.537,1283.363 1059.994,1279.36 1060.218,1308.143 				"/>
				<polygon style="fill:#FFFFFF;" points="1220.663,1472.857 1220.492,1444.244 1061.248,1440.599 1061.472,1469.275 				"/>
				<polygon style="fill:#FFFFFF;" points="1221.139,1553.02 1220.969,1524.459 1061.873,1520.994 1062.097,1549.617 				"/>
				<polygon style="fill:#FFFFFF;" points="1221.614,1633.033 1221.444,1604.526 1062.498,1601.238 1062.72,1629.808 				"/>
				<polygon style="fill:#FFFFFF;" points="1222.088,1712.901 1221.918,1684.447 1063.121,1681.334 1063.343,1709.85 				"/>
			</g>
		</g>
		<g>
			<path style="fill:#BDD0FB;" d="M1435.297,688.674c-0.144-8.12,1.997-15.912,5.944-21.632c3.946-5.72,9.369-8.89,15.053-8.801
				l460.003,7.234c11.709,0.184,21.309,13.871,21.461,30.595l9.873,1088.089c0.15,16.512-8.976,29.873-20.531,30.058l-453.248,11.55
				c-5.656,0.09-8.234-7.386-12.352-13.06c-4.117-5.674-6.513-13.412-6.657-21.496L1435.297,688.674z"/>
			<g style="opacity:0.45;">
				<polygon style="fill:#FFFFFF;" points="1861.295,771.805 1861.198,744.58 1711.489,739.497 1711.636,766.784 				"/>
				<polygon style="fill:#FFFFFF;" points="1861.566,848.079 1861.469,820.905 1711.9,815.994 1712.047,843.229 				"/>
				<polygon style="fill:#FFFFFF;" points="1861.836,924.213 1861.739,897.089 1712.311,892.349 1712.458,919.533 				"/>
				<polygon style="fill:#FFFFFF;" points="1862.105,1000.202 1862.009,973.129 1712.72,968.559 1712.867,995.693 				"/>
				<polygon style="fill:#FFFFFF;" points="1862.375,1076.052 1862.278,1049.029 1713.13,1044.628 1713.276,1071.711 				"/>
				<polygon style="fill:#FFFFFF;" points="1862.911,1227.327 1862.815,1200.405 1713.946,1196.341 1714.092,1223.323 				"/>
				<polygon style="fill:#FFFFFF;" points="1863.712,1453.187 1863.616,1426.414 1715.164,1422.853 1715.309,1449.685 				"/>
				<polygon style="fill:#FFFFFF;" points="1862.643,1151.759 1862.546,1124.786 1713.538,1120.556 1713.684,1147.589 				"/>
				<polygon style="fill:#FFFFFF;" points="1863.179,1302.753 1863.083,1275.88 1714.353,1271.987 1714.498,1298.919 				"/>
				<polygon style="fill:#FFFFFF;" points="1863.446,1378.038 1863.35,1351.216 1714.759,1347.49 1714.904,1374.372 				"/>
				<polygon style="fill:#FFFFFF;" points="1863.978,1528.194 1863.883,1501.471 1715.569,1498.078 1715.714,1524.86 				"/>
				<polygon style="fill:#FFFFFF;" points="1864.244,1603.064 1864.149,1576.391 1715.973,1573.161 1716.117,1599.894 				"/>
				<polygon style="fill:#FFFFFF;" points="1864.509,1677.794 1864.414,1651.17 1716.375,1648.108 1716.52,1674.791 				"/>
				<polygon style="fill:#FFFFFF;" points="1864.773,1752.386 1864.678,1725.811 1716.778,1722.913 1716.922,1749.547 				"/>
				<polygon style="fill:#FFFFFF;" points="1666.032,765.252 1665.869,737.947 1515.302,732.834 1515.515,760.201 				"/>
				<polygon style="fill:#FFFFFF;" points="1666.486,841.751 1666.324,814.497 1515.898,809.556 1516.112,836.871 				"/>
				<polygon style="fill:#FFFFFF;" points="1666.94,918.106 1666.777,890.903 1516.494,886.135 1516.707,913.4 				"/>
				<polygon style="fill:#FFFFFF;" points="1667.392,994.32 1667.23,967.167 1517.089,962.57 1517.301,989.783 				"/>
				<polygon style="fill:#FFFFFF;" points="1667.844,1070.389 1667.682,1043.288 1517.682,1038.863 1517.894,1066.025 				"/>
				<polygon style="fill:#FFFFFF;" points="1668.744,1222.104 1668.583,1195.104 1518.866,1191.019 1519.077,1218.08 				"/>
				<polygon style="fill:#FFFFFF;" points="1670.089,1448.619 1669.929,1421.769 1520.632,1418.189 1520.843,1445.099 				"/>
				<polygon style="fill:#FFFFFF;" points="1668.294,1146.316 1668.133,1119.266 1518.274,1115.011 1518.486,1142.123 				"/>
				<polygon style="fill:#FFFFFF;" points="1669.193,1297.749 1669.033,1270.799 1519.456,1266.883 1519.667,1293.894 				"/>
				<polygon style="fill:#FFFFFF;" points="1669.642,1373.255 1669.481,1346.355 1520.045,1342.606 1520.255,1369.566 				"/>
				<polygon style="fill:#FFFFFF;" points="1670.536,1523.845 1670.376,1497.045 1521.22,1493.63 1521.429,1520.49 				"/>
				<polygon style="fill:#FFFFFF;" points="1670.982,1598.929 1670.822,1572.178 1521.805,1568.932 1522.015,1595.742 				"/>
				<polygon style="fill:#FFFFFF;" points="1671.427,1673.874 1671.267,1647.173 1522.39,1644.094 1522.599,1670.854 				"/>
				<polygon style="fill:#FFFFFF;" points="1671.871,1748.682 1671.712,1722.031 1522.974,1719.115 1523.182,1745.825 				"/>
			</g>
		</g>
		<g>
			<path style="fill:#BDD0FB;" d="M793.503,1820.523c-85.334,10.028-185.207-90.168-211.702-192.978
				c-27.266-105.801,41.398-143.673,52.398-286.553c12.496-162.307-69.941-193.559-108.158-416.769
				c-8.622-50.36-58.521-341.794,36.137-388.044c87.521-42.764,310.725,118.165,337.211,303.268
				c18.886,131.987-76.149,179.112-53.685,332.876c19.711,134.917,99.396,143.263,119.693,273.533
				C990.107,1604.448,905.547,1807.357,793.503,1820.523z"/>
			<path style="fill:#FFFFFF;" d="M784.239,1859.343c36.718-173,14.273-446.268-11.022-645.048
				c-27.385-215.213-63.909-391.901-64.274-393.661l-7.154,1.488c0.365,1.757,36.839,178.21,64.187,393.148
				c25.218,198.202,47.618,470.568,11.114,642.557L784.239,1859.343z"/>
		</g>
		<g>
			<path style="fill:#91B3FA;" d="M698.204,912.96c-0.083-7.316,5.672-13.377,12.94-13.594l440.885-13.193
				c7.366-0.22,15.372,5.61,15.594,13.022l30.978,1035.233c0.166,5.532-2.791,10.93-6.567,14.953
				c-3.777,4.023-9.452,6.382-14.952,6.531l-445.75,12.114c-5.547,0.15-11.038-1.942-15.037-5.813
				c-3.999-3.872-6.344-9.209-6.407-14.792L698.204,912.96z"/>
			<g style="opacity:0.66;">
				<polygon style="fill:#FFFFFF;" points="953.198,965.553 1097.406,960.735 1096.809,942.581 952.761,947.35 				"/>
				<polygon style="fill:#FFFFFF;" points="954.804,1032.437 1099.6,1027.439 1098.998,1009.136 954.363,1014.085 				"/>
				<polygon style="fill:#FFFFFF;" points="956.422,1099.875 1101.812,1094.693 1101.205,1076.239 955.979,1081.37 				"/>
				<polygon style="fill:#FFFFFF;" points="958.055,1167.873 1104.043,1162.505 1103.431,1143.898 957.607,1149.214 				"/>
				<polygon style="fill:#FFFFFF;" points="959.701,1236.437 1106.291,1230.88 1105.674,1212.118 959.249,1217.622 				"/>
				<polygon style="fill:#FFFFFF;" points="963.035,1375.292 1110.845,1369.348 1110.218,1350.27 962.575,1356.16 				"/>
				<polygon style="fill:#FFFFFF;" points="968.141,1588.007 1117.822,1581.46 1117.178,1561.894 967.67,1568.385 				"/>
				<polygon style="fill:#FFFFFF;" points="961.361,1305.573 1108.559,1299.825 1107.937,1280.906 960.905,1286.602 				"/>
				<polygon style="fill:#FFFFFF;" points="964.722,1445.599 1113.151,1439.458 1112.518,1420.219 964.259,1426.307 				"/>
				<polygon style="fill:#FFFFFF;" points="966.425,1516.502 1115.476,1510.159 1114.839,1490.757 965.958,1497.045 				"/>
				<polygon style="fill:#FFFFFF;" points="969.872,1660.125 1120.187,1653.369 1119.538,1633.636 969.398,1640.334 				"/>
				<polygon style="fill:#FFFFFF;" points="971.618,1732.86 1122.572,1725.894 1121.917,1705.991 971.14,1712.9 				"/>
				<polygon style="fill:#FFFFFF;" points="973.38,1806.225 1124.978,1799.044 1124.318,1778.97 972.896,1786.092 				"/>
				<polygon style="fill:#FFFFFF;" points="975.156,1880.223 1127.404,1872.824 1126.738,1852.576 974.669,1859.915 				"/>
				<polygon style="fill:#FFFFFF;" points="764.13,971.87 909.243,967.021 908.855,948.804 763.904,953.603 				"/>
				<polygon style="fill:#FFFFFF;" points="764.96,1038.991 910.669,1033.961 910.277,1015.593 764.732,1020.573 				"/>
				<polygon style="fill:#FFFFFF;" points="765.797,1106.668 912.107,1101.454 911.712,1082.934 765.567,1088.098 				"/>
				<polygon style="fill:#FFFFFF;" points="766.641,1174.911 913.556,1169.509 913.159,1150.835 766.41,1156.185 				"/>
				<polygon style="fill:#FFFFFF;" points="767.492,1243.722 915.018,1238.13 914.617,1219.3 767.259,1224.84 				"/>
				<polygon style="fill:#FFFFFF;" points="769.216,1383.085 917.978,1377.104 917.57,1357.956 768.979,1363.884 				"/>
				<polygon style="fill:#FFFFFF;" points="771.857,1596.593 922.513,1590.003 922.094,1570.364 771.613,1576.897 				"/>
				<polygon style="fill:#FFFFFF;" points="768.35,1313.111 916.492,1307.326 916.087,1288.338 768.115,1294.07 				"/>
				<polygon style="fill:#FFFFFF;" points="770.089,1453.653 919.477,1447.472 919.065,1428.162 769.849,1434.289 				"/>
				<polygon style="fill:#FFFFFF;" points="770.969,1524.82 920.989,1518.435 920.574,1498.962 770.728,1505.29 				"/>
				<polygon style="fill:#FFFFFF;" points="772.753,1668.984 924.05,1662.184 923.628,1642.376 772.507,1649.118 				"/>
				<polygon style="fill:#FFFFFF;" points="773.656,1741.996 925.601,1734.984 925.176,1715.006 773.408,1721.959 				"/>
				<polygon style="fill:#FFFFFF;" points="774.567,1815.642 927.165,1808.414 926.736,1788.263 774.317,1795.431 				"/>
				<polygon style="fill:#FFFFFF;" points="775.486,1889.926 928.743,1882.479 928.31,1862.152 775.233,1869.539 				"/>
			</g>
		</g>
		<g>
			<path style="fill:#91B3FA;" d="M1421.721,1163.95c-0.066-4.802,2.135-9.441,6.103-12.864c3.97-3.423,9.369-5.34,14.974-5.315
				l425.884,1.881c7.31,0.032,13.184,5.082,13.198,11.346l1.718,779.787l-430.322,8.376c-5.516,0.107-10.835-1.669-14.785-4.938
				c-3.95-3.269-6.206-7.762-6.271-12.488L1421.721,1163.95z"/>
			<g style="opacity:0.37;">
				<g>
					<polygon style="fill:#FFFFFF;" points="1769.168,1275.099 1832.031,1273.2 1832.83,1195.262 1769.562,1197.155 					"/>
					<polygon style="fill:#FFFFFF;" points="1671.198,1277.823 1731.001,1276.009 1731.159,1198.305 1670.973,1200.106 					"/>
					<polygon style="fill:#FFFFFF;" points="1571.051,1280.607 1633.235,1278.728 1632.775,1201.249 1570.196,1203.121 					"/>
					<polygon style="fill:#FFFFFF;" points="1471.453,1283.376 1533.297,1281.506 1532.209,1204.258 1469.974,1206.12 					"/>
				</g>
				<g>
					<polygon style="fill:#FFFFFF;" points="1768.519,1401.869 1830.736,1400.354 1831.523,1324.17 1768.914,1325.824 					"/>
					<polygon style="fill:#FFFFFF;" points="1671.558,1404.229 1730.751,1402.788 1730.909,1326.829 1671.347,1328.402 					"/>
					<polygon style="fill:#FFFFFF;" points="1572.438,1406.642 1633.99,1405.144 1633.544,1329.401 1571.609,1331.038 					"/>
					<polygon style="fill:#FFFFFF;" points="1473.855,1409.042 1535.073,1407.552 1534.013,1332.032 1472.416,1333.659 					"/>
				</g>
				<g>
					<polygon style="fill:#FFFFFF;" points="1767.875,1525.755 1829.455,1524.464 1830.225,1449.835 1768.262,1451.26 					"/>
					<polygon style="fill:#FFFFFF;" points="1671.903,1527.766 1730.493,1526.538 1730.648,1452.125 1671.696,1453.481 					"/>
					<polygon style="fill:#FFFFFF;" points="1573.789,1529.823 1634.717,1528.546 1634.28,1454.341 1572.977,1455.751 					"/>
					<polygon style="fill:#FFFFFF;" points="1476.2,1531.869 1536.802,1530.598 1535.763,1456.607 1474.79,1458.009 					"/>
				</g>
				<g>
					<polygon style="fill:#FFFFFF;" points="1767.244,1647.137 1828.199,1646.062 1828.954,1572.94 1767.623,1574.145 					"/>
					<polygon style="fill:#FFFFFF;" points="1672.241,1648.813 1730.239,1647.79 1730.391,1574.876 1672.038,1576.022 					"/>
					<polygon style="fill:#FFFFFF;" points="1575.112,1650.527 1635.428,1649.463 1635,1576.75 1574.316,1577.941 					"/>
					<polygon style="fill:#FFFFFF;" points="1478.498,1652.232 1538.495,1651.173 1537.477,1578.665 1477.116,1579.85 					"/>
				</g>
				<g>
					<polygon style="fill:#FFFFFF;" points="1766.625,1766.09 1826.969,1765.222 1827.708,1693.563 1766.997,1694.556 					"/>
					<polygon style="fill:#FFFFFF;" points="1672.572,1767.444 1729.991,1766.618 1730.14,1695.158 1672.373,1696.103 					"/>
					<polygon style="fill:#FFFFFF;" points="1576.409,1768.828 1636.126,1767.969 1635.706,1696.703 1575.629,1697.685 					"/>
					<polygon style="fill:#FFFFFF;" points="1480.751,1770.205 1540.155,1769.35 1539.156,1698.281 1479.396,1699.258 					"/>
				</g>
				<g>
					<polygon style="fill:#FFFFFF;" points="1766.019,1882.688 1825.762,1882.018 1826.488,1811.778 1766.383,1812.567 					"/>
					<polygon style="fill:#FFFFFF;" points="1672.896,1883.731 1729.748,1883.094 1729.894,1813.046 1672.701,1813.797 					"/>
					<polygon style="fill:#FFFFFF;" points="1577.68,1884.798 1636.81,1884.136 1636.399,1814.273 1576.915,1815.054 					"/>
					<polygon style="fill:#FFFFFF;" points="1482.959,1885.86 1541.781,1885.201 1540.803,1815.528 1481.631,1816.305 					"/>
				</g>
			</g>
		</g>
		<g>
			<path style="fill:#BDD0FB;" d="M927.441,1322.732c0.051-6.928,11.105-12.958,24.865-13.37l520.051-15.562
				c13.943-0.417,27.816,5.164,28.026,12.179l18.76,626.942c0.101,3.375-3.667,6.726-8.344,9.251
				c-4.678,2.525-11.675,4.069-18.384,4.261l-543.765,15.524c-6.766,0.193-13.431-0.984-18.237-3.275
				c-4.805-2.291-7.574-5.574-7.549-8.981L927.441,1322.732z"/>
			<g style="opacity:0.5;">
				<g>
					<polygon style="fill:#FFFFFF;" points="1312.264,1372.535 1460.412,1368.001 1460.444,1329.765 1312.15,1334.202 					"/>
					<polygon style="fill:#FFFFFF;" points="1146.203,1377.485 1294.202,1372.956 1294.074,1334.743 1145.927,1339.176 					"/>
					<polygon style="fill:#FFFFFF;" points="980.308,1382.43 1128.159,1377.905 1127.87,1339.717 979.873,1344.145 					"/>
				</g>
				<g>
					<polygon style="fill:#FFFFFF;" points="1312.465,1441.16 1460.359,1436.782 1460.395,1398.795 1312.357,1403.194 					"/>
					<polygon style="fill:#FFFFFF;" points="1146.692,1446.068 1294.438,1441.694 1294.313,1403.731 1146.424,1408.125 					"/>
					<polygon style="fill:#FFFFFF;" points="981.085,1450.969 1128.682,1446.6 1128.398,1408.661 980.658,1413.051 					"/>
				</g>
				<g>
					<polygon style="fill:#FFFFFF;" points="1312.657,1509.314 1460.296,1504.975 1460.331,1467.119 1312.55,1471.48 					"/>
					<polygon style="fill:#FFFFFF;" points="1147.172,1514.179 1294.662,1509.844 1294.537,1472.012 1146.905,1476.368 					"/>
					<polygon style="fill:#FFFFFF;" points="981.851,1519.039 1129.194,1514.708 1128.91,1476.899 981.426,1481.252 					"/>
				</g>
				<g>
					<polygon style="fill:#FFFFFF;" points="1312.849,1577.233 1460.232,1572.931 1460.267,1535.206 1312.743,1539.529 					"/>
					<polygon style="fill:#FFFFFF;" points="1147.65,1582.055 1294.885,1577.757 1294.761,1540.056 1147.384,1544.375 					"/>
					<polygon style="fill:#FFFFFF;" points="982.615,1586.872 1129.703,1582.579 1129.42,1544.902 982.191,1549.216 					"/>
				</g>
				<g>
					<polygon style="fill:#FFFFFF;" points="1313.041,1644.916 1460.168,1640.652 1460.204,1603.058 1312.935,1607.343 					"/>
					<polygon style="fill:#FFFFFF;" points="1148.127,1649.697 1295.107,1645.436 1294.984,1607.866 1147.862,1612.147 					"/>
					<polygon style="fill:#FFFFFF;" points="983.377,1654.472 1130.211,1650.216 1129.929,1612.669 982.954,1616.945 					"/>
				</g>
				<g>
					<polygon style="fill:#FFFFFF;" points="1313.231,1712.367 1460.105,1708.14 1460.141,1670.676 1313.126,1674.923 					"/>
					<polygon style="fill:#FFFFFF;" points="1148.601,1717.105 1295.329,1712.882 1295.206,1675.441 1148.338,1679.684 					"/>
					<polygon style="fill:#FFFFFF;" points="984.135,1721.838 1130.716,1717.619 1130.436,1680.202 983.714,1684.441 					"/>
				</g>
				<g>
					<polygon style="fill:#FFFFFF;" points="1313.422,1779.585 1460.042,1775.395 1460.078,1738.059 1313.316,1742.27 					"/>
					<polygon style="fill:#FFFFFF;" points="1149.074,1784.281 1295.55,1780.095 1295.427,1742.783 1148.812,1746.989 					"/>
					<polygon style="fill:#FFFFFF;" points="984.891,1788.973 1131.221,1784.791 1130.941,1747.502 984.472,1751.704 					"/>
				</g>
				<g>
					<polygon style="fill:#FFFFFF;" points="1313.611,1846.571 1459.98,1842.418 1460.015,1805.211 1313.506,1809.384 					"/>
					<polygon style="fill:#FFFFFF;" points="1149.547,1851.226 1295.77,1847.078 1295.648,1809.893 1149.284,1814.063 					"/>
					<polygon style="fill:#FFFFFF;" points="985.645,1855.877 1131.723,1851.732 1131.444,1814.571 985.227,1818.736 					"/>
				</g>
				<g>
					<polygon style="fill:#FFFFFF;" points="1313.8,1913.328 1459.918,1909.212 1459.952,1872.132 1313.695,1876.27 					"/>
					<polygon style="fill:#FFFFFF;" points="1150.017,1917.942 1295.99,1913.83 1295.868,1876.774 1149.756,1880.906 					"/>
					<polygon style="fill:#FFFFFF;" points="986.395,1922.552 1132.224,1918.443 1131.946,1881.41 985.979,1885.538 					"/>
				</g>
			</g>
		</g>
		<g>
			<g>
				<g>
					
						<linearGradient id="SVGID_00000114789441501699168350000002939241042870243761_" gradientUnits="userSpaceOnUse" x1="3463.3125" y1="439.0466" x2="2947.3298" y2="678.4899" gradientTransform="matrix(0.9998 0.0217 -0.0217 0.9998 73.7975 -45.4576)">
						<stop  offset="0" style="stop-color:#FF928E"/>
						<stop  offset="1" style="stop-color:#FE7062"/>
					</linearGradient>
					
						<circle style="fill:url(#SVGID_00000114789441501699168350000002939241042870243761_);" cx="1439.315" cy="1382.883" r="328.682"/>
					
						<linearGradient id="SVGID_00000150088710560682672860000003716108212260423334_" gradientUnits="userSpaceOnUse" x1="3563.3706" y1="654.6774" x2="3047.3892" y2="894.1201" gradientTransform="matrix(0.9998 0.0217 -0.0217 0.9998 73.7975 -45.4576)">
						<stop  offset="0" style="stop-color:#FF928E"/>
						<stop  offset="1" style="stop-color:#FE7062"/>
					</linearGradient>
					<path style="fill:url(#SVGID_00000150088710560682672860000003716108212260423334_);" d="M1767.899,1363.276l-328.004-7.115
						l-328.604-7.128c0,0-30.216,186.375,252.222,692.307c12.323,22.074,35.371,37.883,60.645,38.443
						c25.274,0.56,49.047-15.154,62.314-36.673C1790.555,1549.857,1767.899,1363.276,1767.899,1363.276z"/>
				</g>
				<g>
					<path style="fill:#FFFFFF;" d="M1429.846,2092.85l-0.031,1.407l-5.974-0.13c-28.603-0.62-54.963-16.716-68.805-41.509
						c-165.093-295.734-223.907-481.626-244.167-585.431c-5.9-23.906-9.082-47.23-9.728-71.142
						c-1.455-24.479,0.286-34.712,0.489-35.796l0.978-5.225c17.069-176.228,166.957-310.406,343.962-306.567
						c179.33,3.89,324.542,146.428,330.704,324.566c0.201,2.333,0.554,8.252,0.151,18.127l-0.012,1.214
						c-0.7,32.275-5.954,64.145-15.614,94.727c-25.517,102.722-89.647,284.235-264.382,567.67
						C1482.42,2079.089,1456.779,2093.434,1429.846,2092.85z M1119.792,1370.773c-0.079-0.002-0.213,13.137,0.421,23.75l0.009,0.551
						c0.601,22.653,3.62,44.811,9.236,67.498l0.101,0.527c19.955,102.396,78.162,286.147,242.149,579.897
						c10.557,18.911,33.667,31.038,55.536,31.522l2.791,9.62l0.207-9.54c10.773,0.235,42.768-10.776,54.23-29.367
						c173.614-281.62,242.044-461.502,265.799-562.882l0.013-0.589c11.405-28.889,13.116-59.128,13.779-89.689l-1.025-1.365
						l0.002-0.108c0.206-9.512-2.327-14.714-2.452-16.067l-1.207-0.579c-5.686-168.141-143.342-302.741-312.639-306.413
						c-168.973-3.666-312.043,125.529-325.35,294.732l-0.99,8.513L1119.792,1370.773z"/>
				</g>
				
					<ellipse transform="matrix(0.7071 -0.7071 0.7071 0.7071 -555.2298 1423.2487)" style="opacity:0.8;fill:#FFFFFF;" cx="1440.398" cy="1381.846" rx="189.787" ry="189.787"/>
				<g>
					
						<linearGradient id="SVGID_00000040576661075662960070000011064352525099376543_" gradientUnits="userSpaceOnUse" x1="1544.0134" y1="332.7319" x2="1403.3484" y2="1756.9788">
						<stop  offset="0" style="stop-color:#E1473D"/>
						<stop  offset="1" style="stop-color:#E9605A"/>
					</linearGradient>
					<path style="fill:url(#SVGID_00000040576661075662960070000011064352525099376543_);" d="M1436.052,1582.188
						c-110.469-2.396-198.393-94.219-195.997-204.688c2.396-110.469,94.219-198.393,204.689-195.997
						c110.47,2.396,198.393,94.219,195.997,204.689C1638.344,1496.661,1546.522,1584.585,1436.052,1582.188z M1444.284,1202.704
						c-98.779-2.143-180.885,76.477-183.028,175.256c-2.143,98.779,76.477,180.885,175.256,183.028s180.886-76.477,183.029-175.256
						C1621.684,1286.953,1543.063,1204.847,1444.284,1202.704z"/>
				</g>
			</g>
			<g>
				<path style="fill:#FFFFFF;" d="M1264.694,1180.389c-0.894-0.019-1.777-0.414-2.39-1.16c-1.115-1.357-0.919-3.361,0.439-4.477
					c54.296-44.622,122.944-68.355,193.3-66.829c1.756,0.038,3.149,1.493,3.111,3.249c-0.038,1.757-1.492,3.15-3.249,3.112
					c-68.838-1.493-136.002,21.727-189.124,65.382C1266.171,1180.169,1265.428,1180.405,1264.694,1180.389z"/>
			</g>
			<g>
				<path style="fill:#FFFFFF;" d="M1158.294,1399.257c-1.757-0.038-3.149-1.492-3.111-3.249
					c1.192-54.946,17.587-108.217,47.413-154.052c0.96-1.474,2.93-1.89,4.401-0.932c1.473,0.958,1.89,2.929,0.932,4.401
					c-29.181,44.841-45.221,96.96-46.388,150.72C1161.505,1397.902,1160.051,1399.295,1158.294,1399.257z"/>
			</g>
		</g>
		<g>
			
				<linearGradient id="SVGID_00000038378430379186693700000014411126293413309082_" gradientUnits="userSpaceOnUse" x1="2794.4155" y1="2303.0457" x2="2585.3171" y2="1837.6328">
				<stop  offset="0" style="stop-color:#4F52FF"/>
				<stop  offset="1" style="stop-color:#4042E2"/>
			</linearGradient>
			<path style="fill:url(#SVGID_00000038378430379186693700000014411126293413309082_);" d="M2415.242,1362.219
				c3.554,0.176,285.46,21.11,285.46,21.11c28.278,191.325-33.487,427.547-100.779,666.524
				c-14.626,51.94-57.237,87.251-105.438,87.251h-94.114L2415.242,1362.219z"/>
			
				<linearGradient id="SVGID_00000108285178060520867030000009862348699217202312_" gradientUnits="userSpaceOnUse" x1="-2004.9698" y1="698.9022" x2="-3162.4114" y2="2514.4976" gradientTransform="matrix(-1 0 0 1 -69.3305 0)">
				<stop  offset="0" style="stop-color:#4F52FF"/>
				<stop  offset="1" style="stop-color:#4042E2"/>
			</linearGradient>
			<path style="fill:url(#SVGID_00000108285178060520867030000009862348699217202312_);" d="M2229.731,1312.794l423.3,9.794
				c58.536,11.856,97.676,67.296,89.252,126.424l-17.391,122.074c-3.832,26.896-25.046,48.307-52.02,51.547
				c-87.908,10.56-420.154,57.676-511.394-3.697l-12.345-222.908C2146.59,1350.09,2183.735,1311.73,2229.731,1312.794z"/>
			
				<linearGradient id="SVGID_00000087371970735188884870000006428582586780725919_" gradientUnits="userSpaceOnUse" x1="-1309.3552" y1="2833.1558" x2="-1933.4872" y2="3323.2258" gradientTransform="matrix(-1 0 0 1 698.4381 0)">
				<stop  offset="0" style="stop-color:#09005D"/>
				<stop  offset="1" style="stop-color:#1A0F91"/>
			</linearGradient>
			<path style="fill:url(#SVGID_00000087371970735188884870000006428582586780725919_);" d="M2431.367,3100.837
				c-1.552,5.647,0.268,8.68-5.068,9.803c-40.889,8.599-121.597,0.704-148.883-2.863c-6.021-0.787-10.42-6.354-10.521-12.639
				C2333.73,3102.744,2402.623,3103.405,2431.367,3100.837z"/>
			
				<linearGradient id="SVGID_00000082332720238631173990000005085062812942697127_" gradientUnits="userSpaceOnUse" x1="-1230.2966" y1="2983.0249" x2="-1802.5725" y2="3432.3774" gradientTransform="matrix(-1 0 0 1 698.4381 0)">
				<stop  offset="0" style="stop-color:#09005D"/>
				<stop  offset="1" style="stop-color:#1A0F91"/>
			</linearGradient>
			<path style="fill:url(#SVGID_00000082332720238631173990000005085062812942697127_);" d="M2115.986,3097.786
				c38.484-1.078,58.389-5.61,68.679-9.816c0.024,3.826,0.003,7.72-0.121,11.756c-0.133,4.309-3.325,7.752-7.252,7.726
				l-211.302-1.364c-6.744-0.044-10.684-7.865-7.761-14.048C1985.934,3094.329,2056.497,3099.45,2115.986,3097.786z"/>
			
				<linearGradient id="SVGID_00000057840980104683154630000008871962543425429413_" gradientUnits="userSpaceOnUse" x1="1958.2295" y1="3046.2415" x2="2184.6655" y2="3046.2415">
				<stop  offset="0" style="stop-color:#4F52FF"/>
				<stop  offset="1" style="stop-color:#4042E2"/>
			</linearGradient>
			<path style="fill:url(#SVGID_00000057840980104683154630000008871962543425429413_);" d="M1959.066,3090.447
				c17.523-24.485,60.506-71.756,143.443-96.077l73.946,26.396l-0.265-0.094c4.374,16.451,8.31,39.027,8.476,67.296
				c-10.29,4.206-30.195,8.738-68.679,9.816c-59.489,1.664-130.052-3.457-157.757-5.746
				C1958.484,3091.502,1958.703,3090.954,1959.066,3090.447z"/>
			
				<linearGradient id="SVGID_00000013874216951667715620000004119702439093204633_" gradientUnits="userSpaceOnUse" x1="2266.8936" y1="3053.2385" x2="2431.8923" y2="3053.2385">
				<stop  offset="0" style="stop-color:#4F52FF"/>
				<stop  offset="1" style="stop-color:#4042E2"/>
			</linearGradient>
			<path style="fill:url(#SVGID_00000013874216951667715620000004119702439093204633_);" d="M2267.257,3091.584
				c11.875-47.081,81.875-87.365,81.875-87.365l70.279,10.049c7.946,38.292,14.402,73.714,11.956,86.57
				c-0.089,0.474-10.455-0.408-10.581,0.05c-28.744,2.567-87.056,1.969-153.891-5.637
				C2266.877,3094.079,2266.956,3092.78,2267.257,3091.584z"/>
			
				<linearGradient id="SVGID_00000001646389674177356120000009841780261413132701_" gradientUnits="userSpaceOnUse" x1="-2716.6638" y1="1858.8236" x2="-2435.1064" y2="1946.6694" gradientTransform="matrix(-1 0 0 1 -69.3305 0)">
				<stop  offset="0" style="stop-color:#FEBBBA"/>
				<stop  offset="1" style="stop-color:#FF928E"/>
			</linearGradient>
			<path style="fill:url(#SVGID_00000001646389674177356120000009841780261413132701_);" d="M2553.969,1798.583
				c18.64,20.664,52.647,44.262,72.151,55.575c-30.123,35.829-80.239,79.01-133.642,113.678l-15.73,33.58l-47.257-58.863
				C2429.49,1942.553,2520.336,1887.996,2553.969,1798.583z"/>
			
				<linearGradient id="SVGID_00000011016631313124774030000007850994762292414609_" gradientUnits="userSpaceOnUse" x1="2769.7654" y1="1093.9445" x2="2233.5276" y2="1839.281">
				<stop  offset="0" style="stop-color:#FF928E"/>
				<stop  offset="1" style="stop-color:#FE7062"/>
			</linearGradient>
			<path style="fill:url(#SVGID_00000011016631313124774030000007850994762292414609_);" d="M2086.892,1490.198
				c16.934-20.422,28.577-71.991,50.414-102.111c128.509-89.094,314.321-20.268,387.99-9.572
				c24.156,3.508,46.076,15.863,61.683,34.631c61.896,74.424,196.966,277.534,29.714,476.469
				c-20.695-12.004-50.064-31.184-69.843-53.109c19.044-50.63,21.754-115.74-14.632-196.33c-1.414,6.307-3.133,12.544-5.195,18.676
				c-55.354,164.479-60.741,302.121-61.223,333.858c-0.064,4.309-2.726,8.14-6.757,9.669c-69.26,26.246-201.271,7.353-245.563-0.104
				c-8.121-1.368-13.457-9.054-12.178-17.189c24.782-157.523-82.191-419.445-110.512-485.078
				C2088.752,1495.285,2090.378,1493.866,2086.892,1490.198z"/>
			
				<linearGradient id="SVGID_00000071540163062038568560000013403876234339034550_" gradientUnits="userSpaceOnUse" x1="-1680.0259" y1="2848.6858" x2="-1715.2299" y2="3155.9219" gradientTransform="matrix(-1 0 0 1 698.4381 0)">
				<stop  offset="0" style="stop-color:#FEBBBA"/>
				<stop  offset="1" style="stop-color:#FF928E"/>
			</linearGradient>
			<path style="fill:url(#SVGID_00000071540163062038568560000013403876234339034550_);" d="M2421.765,2928.425l-14.758,83.657
				c-1.082,6.129-5.082,10.72-9.927,11.256c-5.93,0.656-14.373,1.04-22.864-0.429c-7.614-1.317-12.915-10.428-11.565-20.205
				l10.258-74.28H2421.765z"/>
			
				<linearGradient id="SVGID_00000072241791128845410940000001053354555435236773_" gradientUnits="userSpaceOnUse" x1="-3128.7004" y1="3452.6948" x2="-3794.1875" y2="4340.0107" gradientTransform="matrix(-1 0 0 1 -69.3305 0)">
				<stop  offset="0" style="stop-color:#09005D"/>
				<stop  offset="1" style="stop-color:#1A0F91"/>
			</linearGradient>
			<path style="fill:url(#SVGID_00000072241791128845410940000001053354555435236773_);" d="M2185.594,1858.112
				c0,0-88.98,574.19-87.016,1137.453c0.036,10.27,22.966,29.122,31.71,32.861c19.091,8.163,25.664,6.512,42.291,6.007
				c8.876-0.27,12.073-3.71,13.566-13.197c15.236-96.846,102.677-642.43,152.498-731.005c0,0,21.624,468.093,1.5,719.606
				c-1.127,14.084,26.158,26.127,31.909,26.848c8.724,1.094,21.298,5.917,39.06,3.872c6.741-0.776,12.181-6.3,13.145-13.573
				c10.853-81.964,73.321-569.843,70.666-921.292c-0.15-19.819-10.553-247.578-10.553-247.578H2185.594z"/>
			
				<linearGradient id="SVGID_00000106869225996925128030000015599418659319365002_" gradientUnits="userSpaceOnUse" x1="-2136.7451" y1="1417.274" x2="-2330.134" y2="1900.7466" gradientTransform="matrix(-1 0 0 1 -69.3305 0)">
				<stop  offset="0" style="stop-color:#09005D"/>
				<stop  offset="1" style="stop-color:#1A0F91"/>
			</linearGradient>
			<path style="fill:url(#SVGID_00000106869225996925128030000015599418659319365002_);" d="M2342.638,2246.276
				c1.82,0,3.485-1.222,3.961-3.069c9.012-34.756,76.491-72.952,77.172-73.334c1.972-1.106,2.677-3.604,1.568-5.578
				c-1.108-1.973-3.593-2.679-5.578-1.569c-2.901,1.627-71.209,40.294-81.093,78.424c-0.568,2.19,0.748,4.427,2.937,4.993
				C2341.95,2246.234,2342.298,2246.276,2342.638,2246.276z"/>
			
				<linearGradient id="SVGID_00000088134983433538326760000006721313468760623265_" gradientUnits="userSpaceOnUse" x1="2882.7063" y1="1427.9524" x2="2727.5774" y2="1480.7861">
				<stop  offset="0" style="stop-color:#FF928E"/>
				<stop  offset="1" style="stop-color:#FE7062"/>
			</linearGradient>
			<path style="fill:url(#SVGID_00000088134983433538326760000006721313468760623265_);" d="M2547.47,1629.576
				c29.539-80.838,18.823-178.453,18.711-179.429l-8.139,0.93c0.108,0.959,10.596,96.7-18.271,175.686L2547.47,1629.576z"/>
			
				<linearGradient id="SVGID_00000037660738101124072880000015282456374415975579_" gradientUnits="userSpaceOnUse" x1="-1615.6337" y1="1183.6373" x2="-1730.3618" y2="1679.4266" gradientTransform="matrix(-1 0 0 1 698.4381 0)">
				<stop  offset="0" style="stop-color:#FEBBBA"/>
				<stop  offset="1" style="stop-color:#FF928E"/>
			</linearGradient>
			<path style="fill:url(#SVGID_00000037660738101124072880000015282456374415975579_);" d="M2400.763,1222.245l14.125,144.31
				c0,0-81.182,24.452-140.229-17.209l41.508-131.156L2400.763,1222.245z"/>
			<g>
				
					<linearGradient id="SVGID_00000075144540527285985690000012354966276220983997_" gradientUnits="userSpaceOnUse" x1="-1878.2584" y1="-2332.4917" x2="-2081.8015" y2="-2063.2209" gradientTransform="matrix(-0.6854 -0.7281 -0.7281 0.6854 -652.561 1318.7853)">
					<stop  offset="0" style="stop-color:#FEBBBA"/>
					<stop  offset="1" style="stop-color:#FF928E"/>
				</linearGradient>
				<path style="fill:url(#SVGID_00000075144540527285985690000012354966276220983997_);" d="M2306.564,1057.766
					c-1.954,1.839-82.461,159.937-82.461,159.937l91.248,44.049l98.566-138.507
					C2413.918,1123.245,2339.275,1026.974,2306.564,1057.766z"/>
				
					<linearGradient id="SVGID_00000090280136719340741450000011280548189946233509_" gradientUnits="userSpaceOnUse" x1="-2033.7076" y1="-2267.8262" x2="-1795.1506" y2="-2267.8262" gradientTransform="matrix(-0.6854 -0.7281 -0.7281 0.6854 -652.561 1318.7853)">
					<stop  offset="0" style="stop-color:#09005D"/>
					<stop  offset="1" style="stop-color:#1A0F91"/>
				</linearGradient>
				<path style="fill:url(#SVGID_00000090280136719340741450000011280548189946233509_);" d="M2373.545,1127.08
					c1.628,4.211,1.228,8.911-1.095,12.783l-45.509,75.863c-0.691,1.151-1.513,2.191-2.496,3.106
					c-5.417,5.042-23.953,19.709-38.283-0.259c-12.213-17.019-23.672-32.492-35.952-38.874c-7.17-3.728-15.994-0.751-19.635,6.464
					c-7.497,14.861-22.022,45.155-31.146,73.881c-2.286,7.199,1.43,14.93,8.431,17.766c18.476,7.486,54.994,21.024,87.399,25.496
					c5.323,0.735,10.593-1.51,13.76-5.851c13.942-19.099,53.236-72.473,66.647-85.833c12.46-12.412,35.455-7.731,45.816-4.754
					c3.933,1.13,8.122,0.586,11.627-1.526c10.513-6.332,28.859-22.1,12.076-48.798c-4.173-6.638-2.046-15.479,4.505-19.788
					c11.737-7.721,24.474-22.214,12.339-45.683c-12.284-23.759-34.22-25.892-49.161-24.066c-6.611,0.808-13.322-2.659-15.858-8.816
					c-1.128-2.739-3.358-5.074-7.51-5.916c-7.83-1.589-12.97-8.75-11.433-16.59c2.635-13.445,12.447-16.662-9.019-28.465
					c-39.371-21.647-60.816,45.425-94.424,29.151c-27.937-13.528,35.25,50.816,62.94,54.328
					C2357.906,1093.278,2369.057,1115.478,2373.545,1127.08z"/>
				
					<linearGradient id="SVGID_00000088099885618683957000000015574499543498869892_" gradientUnits="userSpaceOnUse" x1="-2173.3328" y1="-2119.0266" x2="-2011.2992" y2="-2285.2686" gradientTransform="matrix(-0.6854 -0.7281 -0.7281 0.6854 -652.561 1318.7853)">
					<stop  offset="0" style="stop-color:#FEBBBA"/>
					<stop  offset="1" style="stop-color:#FF928E"/>
				</linearGradient>
				<path style="fill:url(#SVGID_00000088099885618683957000000015574499543498869892_);" d="M2353.994,1237.526
					c0,0,22.086-49.268,44.496-47.388c22.41,1.88,40.048,24.205,12.274,49.301
					C2376.218,1270.656,2353.994,1237.526,2353.994,1237.526z"/>
			</g>
			
				<linearGradient id="SVGID_00000024707353923419926780000015674875064206034565_" gradientUnits="userSpaceOnUse" x1="2605.2627" y1="848.2176" x2="2507.4587" y2="947.7081">
				<stop  offset="0" style="stop-color:#FF928E"/>
				<stop  offset="1" style="stop-color:#FE7062"/>
			</linearGradient>
			<path style="fill:url(#SVGID_00000024707353923419926780000015674875064206034565_);" d="M2166.93,1031.947
				c-7.659,23.945,73.911,71.435,182.194,106.073c108.283,34.638,202.272,43.307,209.932,19.362
				c7.659-23.945-73.911-71.435-182.194-106.073C2268.579,1016.671,2174.59,1008.002,2166.93,1031.947z"/>
			
				<linearGradient id="SVGID_00000047765937571929385690000014062153639834089910_" gradientUnits="userSpaceOnUse" x1="2418.2629" y1="854.4687" x2="2338.1528" y2="1255.02">
				<stop  offset="0" style="stop-color:#FF928E"/>
				<stop  offset="1" style="stop-color:#FE7062"/>
			</linearGradient>
			<path style="fill:url(#SVGID_00000047765937571929385690000014062153639834089910_);" d="M2451.424,1132.452
				c8.467,1.089,16.13-5.376,16.894-14.268l8.098-94.251c0-5.839-3.289-11.084-8.291-13.22l-107.448-45.89
				c-5.635-2.407-12.046-0.966-16.34,3.671l-69.678,89.469C2333.844,1100.585,2382.274,1123.556,2451.424,1132.452z"/>
			
				<linearGradient id="SVGID_00000052811203251949581820000009469431980234173356_" gradientUnits="userSpaceOnUse" x1="-2732.2539" y1="1879.7001" x2="-2438.8914" y2="1971.229" gradientTransform="matrix(-1 0 0 1 -69.3305 0)">
				<stop  offset="0" style="stop-color:#FEBBBA"/>
				<stop  offset="1" style="stop-color:#FF928E"/>
			</linearGradient>
			<path style="fill:url(#SVGID_00000052811203251949581820000009469431980234173356_);" d="M2440.248,1901.244
				c16.465,32.004,32.944,63.286,49.711,80.352c6.797-32.661,9.19-63.077-4.286-85.406L2440.248,1901.244z"/>
			
				<linearGradient id="SVGID_00000012431860455583473590000000445310295007527582_" gradientUnits="userSpaceOnUse" x1="-2385.3218" y1="1586.5759" x2="-2419.4487" y2="2155.365" gradientTransform="matrix(-1 0 0 1 -69.3305 0)">
				<stop  offset="0" style="stop-color:#09005D"/>
				<stop  offset="1" style="stop-color:#1A0F91"/>
			</linearGradient>
			<path style="fill:url(#SVGID_00000012431860455583473590000000445310295007527582_);" d="M2476.146,1848.933
				c-99.276,15.222-194.834,17.277-282.002,5.966c-5.219-0.677-9.987,3.017-10.567,8.248l-4.498,40.55
				c98.091,7.74,200.665,4.298,306.594-7.506l2.571-36.165C2488.723,1853.295,2482.815,1847.91,2476.146,1848.933z"/>
			
				<linearGradient id="SVGID_00000027595357061019683210000011202064133156630923_" gradientUnits="userSpaceOnUse" x1="-2533.6865" y1="2063.5137" x2="-2578.7361" y2="2745.2573" gradientTransform="matrix(-1 0 0 1 -69.3305 0)">
				<stop  offset="0" style="stop-color:#09005D"/>
				<stop  offset="1" style="stop-color:#1A0F91"/>
			</linearGradient>
			<path style="fill:url(#SVGID_00000027595357061019683210000011202064133156630923_);" d="M2487.547,1994.657l1.45-1.722
				c-32.471-27.335-52.77-55.279-62.056-85.426l-2.153,0.662C2434.205,1938.746,2454.733,1967.036,2487.547,1994.657z"/>
			
				<linearGradient id="SVGID_00000044170269483888515230000014550214340433325492_" gradientUnits="userSpaceOnUse" x1="2622.7615" y1="1431.8982" x2="3105.0374" y2="973.2297">
				<stop  offset="0" style="stop-color:#4F52FF"/>
				<stop  offset="1" style="stop-color:#4042E2"/>
			</linearGradient>
			<path style="fill:url(#SVGID_00000044170269483888515230000014550214340433325492_);" d="M2546.834,1352.063
				c-36.194,119.093-41.455,265.759-31.283,426.183l-35.815,25.979c-30.758-164.906-43.995-320.79-22.844-458.962L2546.834,1352.063
				z"/>
			
				<linearGradient id="SVGID_00000132797726089724329540000016133737296526798266_" gradientUnits="userSpaceOnUse" x1="-2025.7972" y1="1078.6986" x2="-2655.7712" y2="2066.8933" gradientTransform="matrix(-1 0 0 1 -69.3305 0)">
				<stop  offset="0" style="stop-color:#4F52FF"/>
				<stop  offset="1" style="stop-color:#4042E2"/>
			</linearGradient>
			<path style="fill:url(#SVGID_00000132797726089724329540000016133737296526798266_);" d="M2266.705,1340.495
				c-10.419,105.038-35.215,222.311-66.616,345.208c-11.426-129.929-18.787-250.862-7.326-330.106
				C2215.474,1341.303,2239.957,1335.478,2266.705,1340.495z"/>
			
				<linearGradient id="SVGID_00000087410146242349844410000009387671333022834876_" gradientUnits="userSpaceOnUse" x1="-1638.8711" y1="1260.3015" x2="-2497.5327" y2="1790.481" gradientTransform="matrix(-1 0 0 1 -69.3305 0)">
				<stop  offset="0" style="stop-color:#FF928E"/>
				<stop  offset="1" style="stop-color:#FE7062"/>
			</linearGradient>
			<path style="fill:url(#SVGID_00000087410146242349844410000009387671333022834876_);" d="M2137.306,1388.086l19.983,422.404
				c-95.651,33.402-121.251-73.191-88.477-296.446c3.892-26.514,32.74-94.539,49.535-115.421L2137.306,1388.086z"/>
			
				<linearGradient id="SVGID_00000095300772887755618900000008972788591912622722_" gradientUnits="userSpaceOnUse" x1="1315.5514" y1="1686.6914" x2="1440.6726" y2="1686.6914" gradientTransform="matrix(1 0 0 1 771.2255 0)">
				<stop  offset="0" style="stop-color:#FEBBBA"/>
				<stop  offset="1" style="stop-color:#FF928E"/>
			</linearGradient>
			<path style="fill:url(#SVGID_00000095300772887755618900000008972788591912622722_);" d="M2184.666,1557.72
				c0,0-120.909,151.425-93.975,218.763c26.935,67.337,107.74,53.87,121.208-87.539l-6.734-87.538L2184.666,1557.72z"/>
			
				<linearGradient id="SVGID_00000161619878884471439760000004785460365137061261_" gradientUnits="userSpaceOnUse" x1="1499.6075" y1="1590.0045" x2="1609.2443" y2="1579.2046" gradientTransform="matrix(1 0 0 1 771.2255 0)">
				<stop  offset="0" style="stop-color:#FEBBBA"/>
				<stop  offset="1" style="stop-color:#FF928E"/>
			</linearGradient>
			<path style="fill:url(#SVGID_00000161619878884471439760000004785460365137061261_);" d="M2188.84,1639.272l-10.445-73.11
				c-1.642-11.5,5.973-22.313,17.377-24.526c17.85-3.464,42.326-7.037,50.992-2.704c13.061,6.531-15.782,126.799-48.116,113.875
				C2193.158,1650.611,2189.676,1645.125,2188.84,1639.272z"/>
		</g>
		<g>
			<g>
				
					<linearGradient id="SVGID_00000158749646234867179550000014544298160614113451_" gradientUnits="userSpaceOnUse" x1="1963.3412" y1="72.3808" x2="1700.2561" y2="1033.6559">
					<stop  offset="0" style="stop-color:#FF928E"/>
					<stop  offset="1" style="stop-color:#FE7062"/>
				</linearGradient>
				<path style="fill:url(#SVGID_00000158749646234867179550000014544298160614113451_);" d="M1224.872,2977.617
					c-4.272-61.812-30.8-102.52-79.847-121.876C1128.495,2908.185,1154.65,2948.937,1224.872,2977.617z"/>
				
					<linearGradient id="SVGID_00000126321755643274278260000000350815592212993467_" gradientUnits="userSpaceOnUse" x1="2046.6235" y1="95.1743" x2="1783.5386" y2="1056.4487">
					<stop  offset="0" style="stop-color:#FF928E"/>
					<stop  offset="1" style="stop-color:#FE7062"/>
				</linearGradient>
				<path style="fill:url(#SVGID_00000126321755643274278260000000350815592212993467_);" d="M1228.998,2973.135
					c57.712-22.546,88.633-60.026,92.449-112.616C1266.459,2860.414,1235.385,2897.551,1228.998,2973.135z"/>
				
					<linearGradient id="SVGID_00000183239306141779017860000008898593456048562357_" gradientUnits="userSpaceOnUse" x1="1984.3466" y1="78.1296" x2="1721.2612" y2="1039.4052">
					<stop  offset="0" style="stop-color:#FF928E"/>
					<stop  offset="1" style="stop-color:#FE7062"/>
				</linearGradient>
				<path style="fill:url(#SVGID_00000183239306141779017860000008898593456048562357_);" d="M1220.587,2764.482
					c-28.064,55.239-26.195,103.792,5.96,145.581C1267.655,2873.541,1266.129,2825.142,1220.587,2764.482z"/>
				
					<linearGradient id="SVGID_00000063633995606420699900000016406017403822661794_" gradientUnits="userSpaceOnUse" x1="2010.7096" y1="85.349" x2="1747.6244" y2="1046.6243">
					<stop  offset="0" style="stop-color:#FF928E"/>
					<stop  offset="1" style="stop-color:#FE7062"/>
				</linearGradient>
				
					<rect x="1224.872" y="2889.715" style="fill:url(#SVGID_00000063633995606420699900000016406017403822661794_);" width="7.337" height="107.131"/>
			</g>
			<g>
				
					<linearGradient id="SVGID_00000082360781646132166770000009574670335856781959_" gradientUnits="userSpaceOnUse" x1="1829.1028" y1="35.6448" x2="1566.0175" y2="996.9208">
					<stop  offset="0" style="stop-color:#FF928E"/>
					<stop  offset="1" style="stop-color:#FE7062"/>
				</linearGradient>
				<path style="fill:url(#SVGID_00000082360781646132166770000009574670335856781959_);" d="M1134.266,2781.456
					c-4.272-61.812-30.8-102.52-79.847-121.876C1037.888,2712.024,1064.043,2752.776,1134.266,2781.456z"/>
				
					<linearGradient id="SVGID_00000160190080004896280380000004758045783605808055_" gradientUnits="userSpaceOnUse" x1="1912.386" y1="58.435" x2="1649.301" y2="1019.7095">
					<stop  offset="0" style="stop-color:#FF928E"/>
					<stop  offset="1" style="stop-color:#FE7062"/>
				</linearGradient>
				<path style="fill:url(#SVGID_00000160190080004896280380000004758045783605808055_);" d="M1138.391,2776.974
					c57.712-22.546,88.633-60.026,92.449-112.616C1175.853,2664.253,1144.778,2701.39,1138.391,2776.974z"/>
				
					<linearGradient id="SVGID_00000178908002708748937200000012633390852807625641_" gradientUnits="userSpaceOnUse" x1="1850.1067" y1="41.3988" x2="1587.0215" y2="1002.6743">
					<stop  offset="0" style="stop-color:#FF928E"/>
					<stop  offset="1" style="stop-color:#FE7062"/>
				</linearGradient>
				<path style="fill:url(#SVGID_00000178908002708748937200000012633390852807625641_);" d="M1129.98,2568.321
					c-28.064,55.239-26.195,103.792,5.961,145.581C1177.049,2677.38,1175.522,2628.981,1129.98,2568.321z"/>
				
					<linearGradient id="SVGID_00000008118271160006971670000009985533619927460768_" gradientUnits="userSpaceOnUse" x1="1876.4731" y1="48.6059" x2="1613.3878" y2="1009.8815">
					<stop  offset="0" style="stop-color:#FF928E"/>
					<stop  offset="1" style="stop-color:#FE7062"/>
				</linearGradient>
				
					<rect x="1134.266" y="2693.554" style="fill:url(#SVGID_00000008118271160006971670000009985533619927460768_);" width="7.337" height="107.131"/>
			</g>
			<g>
				
					<linearGradient id="SVGID_00000112616271788449486780000009502344003686238361_" gradientUnits="userSpaceOnUse" x1="2034.2715" y1="91.7987" x2="1771.1864" y2="1053.0737">
					<stop  offset="0" style="stop-color:#FF928E"/>
					<stop  offset="1" style="stop-color:#FE7062"/>
				</linearGradient>
				<path style="fill:url(#SVGID_00000112616271788449486780000009502344003686238361_);" d="M1352.215,2790.913
					c-4.272-61.812-30.8-102.52-79.847-121.876C1255.837,2721.481,1281.992,2762.233,1352.215,2790.913z"/>
				
					<linearGradient id="SVGID_00000097485476311979122050000018364747940073740205_" gradientUnits="userSpaceOnUse" x1="2117.5532" y1="114.5941" x2="1854.4681" y2="1075.8693">
					<stop  offset="0" style="stop-color:#FF928E"/>
					<stop  offset="1" style="stop-color:#FE7062"/>
				</linearGradient>
				<path style="fill:url(#SVGID_00000097485476311979122050000018364747940073740205_);" d="M1356.34,2786.431
					c57.712-22.546,88.633-60.026,92.449-112.616C1393.802,2673.71,1362.727,2710.847,1356.34,2786.431z"/>
				
					<linearGradient id="SVGID_00000031186361906291130450000000187339868171832211_" gradientUnits="userSpaceOnUse" x1="2055.2795" y1="97.5376" x2="1792.194" y2="1058.814">
					<stop  offset="0" style="stop-color:#FF928E"/>
					<stop  offset="1" style="stop-color:#FE7062"/>
				</linearGradient>
				<path style="fill:url(#SVGID_00000031186361906291130450000000187339868171832211_);" d="M1347.929,2577.778
					c-28.064,55.239-26.195,103.792,5.96,145.581C1394.997,2686.837,1393.471,2638.438,1347.929,2577.778z"/>
				
					<linearGradient id="SVGID_00000166669048991299987380000012840898680614390186_" gradientUnits="userSpaceOnUse" x1="2081.6418" y1="104.7593" x2="1818.5568" y2="1066.0347">
					<stop  offset="0" style="stop-color:#FF928E"/>
					<stop  offset="1" style="stop-color:#FE7062"/>
				</linearGradient>
				
					<rect x="1352.215" y="2703.011" style="fill:url(#SVGID_00000166669048991299987380000012840898680614390186_);" width="7.337" height="107.131"/>
			</g>
			<g>
				
					<linearGradient id="SVGID_00000092417580899922710430000004873856448550888851_" gradientUnits="userSpaceOnUse" x1="2454.6892" y1="206.8567" x2="2191.6038" y2="1168.1327">
					<stop  offset="0" style="stop-color:#FF928E"/>
					<stop  offset="1" style="stop-color:#FE7062"/>
				</linearGradient>
				<path style="fill:url(#SVGID_00000092417580899922710430000004873856448550888851_);" d="M1733.41,3049.285
					c-4.272-61.812-30.8-102.52-79.847-121.876C1637.032,2979.853,1663.187,3020.605,1733.41,3049.285z"/>
				
					<linearGradient id="SVGID_00000147922970476003553950000009107887898767874212_" gradientUnits="userSpaceOnUse" x1="2537.9653" y1="229.6722" x2="2274.8801" y2="1190.9474">
					<stop  offset="0" style="stop-color:#FF928E"/>
					<stop  offset="1" style="stop-color:#FE7062"/>
				</linearGradient>
				<path style="fill:url(#SVGID_00000147922970476003553950000009107887898767874212_);" d="M1737.535,3044.803
					c57.712-22.546,88.633-60.026,92.449-112.616C1774.997,2932.082,1743.922,2969.219,1737.535,3044.803z"/>
				
					<linearGradient id="SVGID_00000176040580522469034460000011723222255179137686_" gradientUnits="userSpaceOnUse" x1="2475.6943" y1="212.6056" x2="2212.6091" y2="1173.881">
					<stop  offset="0" style="stop-color:#FF928E"/>
					<stop  offset="1" style="stop-color:#FE7062"/>
				</linearGradient>
				<path style="fill:url(#SVGID_00000176040580522469034460000011723222255179137686_);" d="M1729.124,2836.149
					c-28.064,55.239-26.195,103.792,5.961,145.581C1776.192,2945.209,1774.666,2896.81,1729.124,2836.149z"/>
				
					<linearGradient id="SVGID_00000010299521588033022430000002201714663599964035_" gradientUnits="userSpaceOnUse" x1="2502.0596" y1="219.8175" x2="2238.9744" y2="1181.0922">
					<stop  offset="0" style="stop-color:#FF928E"/>
					<stop  offset="1" style="stop-color:#FE7062"/>
				</linearGradient>
				
					<rect x="1733.41" y="2961.383" style="fill:url(#SVGID_00000010299521588033022430000002201714663599964035_);" width="7.337" height="107.131"/>
			</g>
			<g>
				
					<linearGradient id="SVGID_00000001655998282485925940000009367341044361871007_" gradientUnits="userSpaceOnUse" x1="2662.6248" y1="263.7622" x2="2399.5396" y2="1225.0382">
					<stop  offset="0" style="stop-color:#FF928E"/>
					<stop  offset="1" style="stop-color:#FE7062"/>
				</linearGradient>
				<path style="fill:url(#SVGID_00000001655998282485925940000009367341044361871007_);" d="M1917.022,3195.065
					c-4.272-61.812-30.8-102.52-79.847-121.876C1820.644,3125.634,1846.799,3166.385,1917.022,3195.065z"/>
				
					<linearGradient id="SVGID_00000024709320968864362040000002789188822620222384_" gradientUnits="userSpaceOnUse" x1="2745.9055" y1="286.5614" x2="2482.8203" y2="1247.8367">
					<stop  offset="0" style="stop-color:#FF928E"/>
					<stop  offset="1" style="stop-color:#FE7062"/>
				</linearGradient>
				<path style="fill:url(#SVGID_00000024709320968864362040000002789188822620222384_);" d="M1921.147,3190.583
					c57.712-22.546,88.633-60.026,92.449-112.616C1958.609,3077.863,1927.534,3114.999,1921.147,3190.583z"/>
				
					<linearGradient id="SVGID_00000135669446307411412820000018331728105033317027_" gradientUnits="userSpaceOnUse" x1="2683.6282" y1="269.518" x2="2420.543" y2="1230.7935">
					<stop  offset="0" style="stop-color:#FF928E"/>
					<stop  offset="1" style="stop-color:#FE7062"/>
				</linearGradient>
				<path style="fill:url(#SVGID_00000135669446307411412820000018331728105033317027_);" d="M1912.736,2981.93
					c-28.064,55.239-26.195,103.792,5.96,145.58C1959.804,3090.99,1958.278,3042.591,1912.736,2981.93z"/>
				
					<linearGradient id="SVGID_00000160881013444106423890000000385500735667339436_" gradientUnits="userSpaceOnUse" x1="2709.9917" y1="276.7355" x2="2446.9067" y2="1238.0103">
					<stop  offset="0" style="stop-color:#FF928E"/>
					<stop  offset="1" style="stop-color:#FE7062"/>
				</linearGradient>
				
					<rect x="1917.022" y="3107.164" style="fill:url(#SVGID_00000160881013444106423890000000385500735667339436_);" width="7.337" height="107.131"/>
			</g>
			<g>
				
					<linearGradient id="SVGID_00000079469840613290871460000015522242680569547904_" gradientUnits="userSpaceOnUse" x1="2233.844" y1="146.4109" x2="1970.7585" y2="1107.6866">
					<stop  offset="0" style="stop-color:#FF928E"/>
					<stop  offset="1" style="stop-color:#FE7062"/>
				</linearGradient>
				<path style="fill:url(#SVGID_00000079469840613290871460000015522242680569547904_);" d="M1580.559,2740.396
					c-4.272-61.812-30.8-102.52-79.847-121.876C1484.182,2670.964,1510.336,2711.716,1580.559,2740.396z"/>
				
					<linearGradient id="SVGID_00000125604143521330716500000008465284284145255050_" gradientUnits="userSpaceOnUse" x1="2317.1235" y1="169.2137" x2="2054.0386" y2="1130.4883">
					<stop  offset="0" style="stop-color:#FF928E"/>
					<stop  offset="1" style="stop-color:#FE7062"/>
				</linearGradient>
				<path style="fill:url(#SVGID_00000125604143521330716500000008465284284145255050_);" d="M1584.685,2735.914
					c57.712-22.546,88.633-60.026,92.449-112.616C1622.146,2623.193,1591.072,2660.33,1584.685,2735.914z"/>
				
					<linearGradient id="SVGID_00000070100353700478497740000011099399993034463922_" gradientUnits="userSpaceOnUse" x1="2254.8484" y1="152.162" x2="1991.7633" y2="1113.4374">
					<stop  offset="0" style="stop-color:#FF928E"/>
					<stop  offset="1" style="stop-color:#FE7062"/>
				</linearGradient>
				<path style="fill:url(#SVGID_00000070100353700478497740000011099399993034463922_);" d="M1576.274,2527.26
					c-28.064,55.239-26.195,103.792,5.961,145.581C1623.342,2636.32,1621.816,2587.921,1576.274,2527.26z"/>
				
					<linearGradient id="SVGID_00000004523705632644266990000006596929963632571041_" gradientUnits="userSpaceOnUse" x1="2281.2117" y1="159.3806" x2="2018.1266" y2="1120.656">
					<stop  offset="0" style="stop-color:#FF928E"/>
					<stop  offset="1" style="stop-color:#FE7062"/>
				</linearGradient>
				
					<rect x="1580.559" y="2652.494" style="fill:url(#SVGID_00000004523705632644266990000006596929963632571041_);" width="7.337" height="107.131"/>
			</g>
			<g>
				
					<linearGradient id="SVGID_00000098198277534804567440000015709546939345297826_" gradientUnits="userSpaceOnUse" x1="2211.9629" y1="140.4197" x2="1948.8777" y2="1101.6957">
					<stop  offset="0" style="stop-color:#FF928E"/>
					<stop  offset="1" style="stop-color:#FE7062"/>
				</linearGradient>
				<path style="fill:url(#SVGID_00000098198277534804567440000015709546939345297826_);" d="M1474.978,3040.234
					c-4.271-61.812-30.8-102.52-79.847-121.876C1378.6,2970.802,1404.755,3011.554,1474.978,3040.234z"/>
				
					<linearGradient id="SVGID_00000183949687989452565670000006350253181005957309_" gradientUnits="userSpaceOnUse" x1="2295.2439" y1="163.2184" x2="2032.1589" y2="1124.4928">
					<stop  offset="0" style="stop-color:#FF928E"/>
					<stop  offset="1" style="stop-color:#FE7062"/>
				</linearGradient>
				<path style="fill:url(#SVGID_00000183949687989452565670000006350253181005957309_);" d="M1479.104,3035.752
					c57.711-22.546,88.633-60.026,92.449-112.616C1516.565,2923.031,1485.49,2960.167,1479.104,3035.752z"/>
				
					<linearGradient id="SVGID_00000032632237973307979020000011798495070254396814_" gradientUnits="userSpaceOnUse" x1="2232.9678" y1="146.1705" x2="1969.8826" y2="1107.4459">
					<stop  offset="0" style="stop-color:#FF928E"/>
					<stop  offset="1" style="stop-color:#FE7062"/>
				</linearGradient>
				<path style="fill:url(#SVGID_00000032632237973307979020000011798495070254396814_);" d="M1470.693,2827.098
					c-28.064,55.239-26.195,103.792,5.96,145.581C1517.761,2936.158,1516.234,2887.759,1470.693,2827.098z"/>
				
					<linearGradient id="SVGID_00000040561335626237606490000006490380634060115868_" gradientUnits="userSpaceOnUse" x1="2259.3315" y1="153.3869" x2="1996.2463" y2="1114.6625">
					<stop  offset="0" style="stop-color:#FF928E"/>
					<stop  offset="1" style="stop-color:#FE7062"/>
				</linearGradient>
				
					<rect x="1474.978" y="2952.332" style="fill:url(#SVGID_00000040561335626237606490000006490380634060115868_);" width="7.337" height="107.131"/>
			</g>
		</g>
		<g>
			
				<linearGradient id="SVGID_00000099633139855266731620000015943994319262590594_" gradientUnits="userSpaceOnUse" x1="4035.4316" y1="1305.0847" x2="3455.3518" y2="2013.322">
				<stop  offset="0" style="stop-color:#E1473D"/>
				<stop  offset="1" style="stop-color:#E9605A"/>
			</linearGradient>
			<path style="fill:url(#SVGID_00000099633139855266731620000015943994319262590594_);" d="M3205.08,2360.854l-683.978,149.363
				l44.192,654.206c0.328,4.859,4.837,8.108,9.19,6.623l634.11-216.379c6.547-2.234,10.99-8.721,10.99-16.049v-565.153
				C3219.583,2365.317,3212.57,2359.219,3205.08,2360.854z"/>
			
				<linearGradient id="SVGID_00000072250571716111421500000009980101989116400555_" gradientUnits="userSpaceOnUse" x1="-2399.1567" y1="2680.165" x2="-2844.0935" y2="3058.0344" gradientTransform="matrix(-1 0 0 1 -69.3305 0)">
				<stop  offset="0" style="stop-color:#FF928E"/>
				<stop  offset="1" style="stop-color:#FE7062"/>
			</linearGradient>
			<path style="fill:url(#SVGID_00000072250571716111421500000009980101989116400555_);" d="M2430.935,3136.034l124.521,35.169
				c4.934,1.394,9.768-2.571,9.768-8.011v-649.21c0-5.556-3.877-10.245-9.049-10.943l-127.007-17.146
				c-8.539-1.153-16.058,6.016-15.932,15.188l8.563,622.49C2421.88,3129.438,2425.614,3134.531,2430.935,3136.034z"/>
			
				<linearGradient id="SVGID_00000003789625057885234770000000446331577430385039_" gradientUnits="userSpaceOnUse" x1="-2581.9832" y1="1945.8115" x2="-3288.6575" y2="3054.3206" gradientTransform="matrix(-1 0 0 1 -69.3305 0)">
				<stop  offset="0" style="stop-color:#FF928E"/>
				<stop  offset="1" style="stop-color:#FE7062"/>
			</linearGradient>
			<path style="fill:url(#SVGID_00000003789625057885234770000000446331577430385039_);" d="M2426.309,2480.614l683.587-158.985
				l91.315,30.019c4.906,1.613,4.582,9.128-0.443,10.254l-635.544,142.358l-138.71-18.726
				C2423.901,2485.181,2423.736,2481.212,2426.309,2480.614z"/>
			
				<linearGradient id="SVGID_00000154412793755780079580000000344662463914244028_" gradientUnits="userSpaceOnUse" x1="3184.1719" y1="1298.4618" x2="3066.1323" y2="1666.0702">
				<stop  offset="0" style="stop-color:#E1473D"/>
				<stop  offset="1" style="stop-color:#E9605A"/>
			</linearGradient>
			<polygon style="fill:url(#SVGID_00000154412793755780079580000000344662463914244028_);" points="2496.189,3154.24 
				2489.444,3154.24 2489.444,2491.701 3159.146,2335.391 3160.681,2341.958 2496.189,2497.053 			"/>
			
				<linearGradient id="SVGID_00000126320510597131715060000017716416176352101307_" gradientUnits="userSpaceOnUse" x1="-2659.1338" y1="2188.0791" x2="-3051.8918" y2="2804.1707" gradientTransform="matrix(-0.9993 0.0371 0.0371 0.9993 -94.679 14.3869)">
				<stop  offset="0" style="stop-color:#E1473D"/>
				<stop  offset="1" style="stop-color:#E9605A"/>
			</linearGradient>
			<path style="fill:url(#SVGID_00000126320510597131715060000017716416176352101307_);" d="M2932.738,2382.253l-2.635-75.593
				c-0.266-7.642-6.694-13.349-13.794-12.248l-197.53,30.638c-6.704,1.04-11.291,7.757-10.158,14.876l13.988,87.896
				c1.012,6.363,6.293,10.94,12.343,10.7l0,0c6.252-0.248,11.289-5.547,11.602-12.207l3.373-71.699
				c0.297-6.308,4.848-11.453,10.739-12.139l124.363-14.491c6.526-0.76,12.425,4.18,13.275,11.118l5.609,45.768
				c0.84,6.857,6.619,11.779,13.08,11.139l4.804-0.476C2928.173,2394.903,2932.975,2389.073,2932.738,2382.253z"/>
		</g>
	</g>
</g>
</svg>
